<svg width="62" height="60" viewBox="0 0 62 60" fill="none" xmlns="http://www.w3.org/2000/svg">
<path fill-rule="evenodd" clip-rule="evenodd" d="M31.0003 5C21.0028 5 12.917 12.825 12.917 22.5C12.917 35.625 31.0003 55 31.0003 55C31.0003 55 49.0837 35.625 49.0837 22.5C49.0837 12.825 40.9978 5 31.0003 5ZM18.0839 22.5C18.0839 15.6 23.8706 10 31.0006 10C38.1306 10 43.9172 15.6 43.9172 22.5C43.9172 29.7 36.4772 40.475 31.0006 47.2C25.6272 40.525 18.0839 29.625 18.0839 22.5Z" fill="#6056DD"/>
<path fill-rule="evenodd" clip-rule="evenodd" d="M31.0003 28.75C34.5672 28.75 37.4587 25.9518 37.4587 22.5C37.4587 19.0482 34.5672 16.25 31.0003 16.25C27.4335 16.25 24.542 19.0482 24.542 22.5C24.542 25.9518 27.4335 28.75 31.0003 28.75Z" fill="#6056DD"/>
</svg>
